<svg width="25" height="24" viewBox="0 0 25 24" fill="none" xmlns="http://www.w3.org/2000/svg">
<g id="Drafts_Outline">
<path id="Vector" d="M8.75 11.0278V10.0833H15.25V11.0278H8.75ZM8.75 7.25V6.30556H15.25V7.25H8.75ZM6.42857 13.8611H13.3929C13.7702 13.8611 14.1167 13.9444 14.4321 14.1108C14.7476 14.2773 15.019 14.5113 15.2464 14.8128L17.5714 17.8822V4.52563C17.5714 4.35612 17.5179 4.21688 17.4107 4.1079C17.3036 3.99893 17.1667 3.94444 17 3.94444H6.99999C6.83333 3.94444 6.69643 3.99893 6.58928 4.1079C6.48214 4.21688 6.42857 4.35612 6.42857 4.52563V13.8611ZM6.99999 19.0556H17.2786L14.5161 15.3886C14.3756 15.2021 14.2098 15.0583 14.0187 14.9572C13.8277 14.8561 13.619 14.8056 13.3929 14.8056H6.42857V18.4744C6.42857 18.6439 6.48214 18.7831 6.58928 18.8921C6.69643 19.0011 6.83333 19.0556 6.99999 19.0556ZM17 20H6.99999C6.57262 20 6.21577 19.8544 5.92946 19.5632C5.64315 19.272 5.5 18.909 5.5 18.4744V4.52563C5.5 4.09095 5.64315 3.72801 5.92946 3.43681C6.21577 3.1456 6.57262 3 6.99999 3H17C17.4274 3 17.7842 3.1456 18.0705 3.43681C18.3568 3.72801 18.5 4.09095 18.5 4.52563V18.4744C18.5 18.909 18.3568 19.272 18.0705 19.5632C17.7842 19.8544 17.4274 20 17 20Z" fill="#2D2D2D"/>
</g>
</svg>
