<svg width="25" height="24" viewBox="0 0 25 24" fill="none" xmlns="http://www.w3.org/2000/svg">
<g id="Drafts Filled">
<path id="Vector" d="M8.25001 10.7763H14.75V9.43423H8.25001V10.7763ZM8.25001 7.19734H14.75V5.85527H8.25001V7.19734ZM17.94 18.342L14.705 14.0008C14.4761 13.6865 14.1978 13.4433 13.87 13.2713C13.5422 13.0992 13.1856 13.0132 12.8 13.0132H5V4.11742C5 3.66546 5.15167 3.2829 5.455 2.96974C5.75834 2.65658 6.12889 2.5 6.56668 2.5H16.4333C16.8711 2.5 17.2417 2.65658 17.545 2.96974C17.8483 3.2829 18 3.66546 18 4.11742V17.8826C18 17.9629 17.995 18.0409 17.985 18.1166C17.975 18.1923 17.96 18.2674 17.94 18.342ZM6.56668 19.5C6.12889 19.5 5.75834 19.3434 5.455 19.0303C5.15167 18.7171 5 18.3345 5 17.8826V14.3552H12.8C12.9778 14.3552 13.142 14.396 13.2925 14.4774C13.4431 14.5589 13.5728 14.6736 13.6817 14.8216L17.03 19.3468C16.9411 19.3996 16.8458 19.4383 16.7442 19.463C16.6425 19.4877 16.5389 19.5 16.4333 19.5H6.56668Z" fill="#27528F"/>
</g>
</svg>
