<svg width="26" height="21" viewBox="0 0 26 21" fill="none" xmlns="http://www.w3.org/2000/svg">
<g id="stocks-icon 1" clip-path="url(#clip0_650_15347)">
<path id="Vector" fill-rule="evenodd" clip-rule="evenodd" d="M0 2.79834C-2.4967e-09 2.63846 0.0330016 2.48014 0.0971205 2.33243C0.161239 2.18472 0.25522 2.05051 0.373696 1.93745C0.492173 1.8244 0.632824 1.73472 0.787621 1.67354C0.942418 1.61235 1.10833 1.58086 1.27588 1.58086C1.44343 1.58086 1.60934 1.61235 1.76414 1.67354C1.91893 1.73472 2.05959 1.8244 2.17806 1.93745C2.29654 2.05051 2.39052 2.18472 2.45464 2.33243C2.51876 2.48014 2.55176 2.63846 2.55176 2.79834V18.563H24.7241C25.0628 18.563 25.3876 18.6914 25.6271 18.9199C25.8665 19.1484 26.0011 19.4583 26.0011 19.7815C26.0011 20.1046 25.8665 20.4146 25.6271 20.6431C25.3876 20.8716 25.0628 21 24.7241 21H0V2.79834ZM21.5609 1.44357L20.9261 0.660182C20.8783 0.60915 20.8448 0.547355 20.8289 0.480603C20.813 0.413851 20.8151 0.344334 20.8351 0.278584C20.9473 -0.038405 21.3281 -4.33058e-05 21.6011 0.0100519C22.3734 0.0625468 24.0809 0.179651 24.4787 0.193784C24.5442 0.191872 24.6092 0.204492 24.6687 0.230651C24.7282 0.256809 24.7805 0.295793 24.8216 0.34453C24.8626 0.393267 24.8912 0.450427 24.9051 0.511509C24.9191 0.57259 24.9179 0.635925 24.9019 0.696524C24.8215 1.08014 24.5654 2.82661 24.4321 3.52318C24.3856 3.76546 24.3094 4.08245 23.9857 4.10466C23.9144 4.10701 23.8437 4.09213 23.7801 4.06143C23.7164 4.03072 23.662 3.98517 23.6217 3.929L22.987 3.14562L22.7267 2.83065L19.5487 5.13033V5.18282C19.5487 5.66797 19.3467 6.13325 18.9872 6.4763C18.6277 6.81935 18.1401 7.01207 17.6317 7.01207C17.1233 7.01207 16.6357 6.81935 16.2762 6.4763C15.9166 6.13325 15.7147 5.66797 15.7147 5.18282C15.7147 5.14244 15.7147 5.10206 15.7147 5.06168L13.4951 3.52923C13.1514 3.75614 12.7393 3.8695 12.3217 3.852C11.9041 3.8345 11.504 3.68711 11.1825 3.43232L9.02425 4.89814C9.07014 5.05193 9.09504 5.21072 9.09831 5.37059C9.09623 5.76159 8.96204 6.14151 8.71567 6.45394C8.4693 6.76637 8.12389 6.99464 7.73075 7.10484C7.3376 7.21504 6.91769 7.20129 6.53339 7.06565C6.14908 6.93 5.82088 6.67968 5.59752 6.35188C5.37417 6.02408 5.26757 5.63627 5.29358 5.24606C5.31958 4.85585 5.47679 4.48405 5.74186 4.18588C6.00693 3.88771 6.36571 3.67908 6.76493 3.59097C7.16414 3.50287 7.5825 3.53998 7.95785 3.69681L10.4969 1.97256C10.5417 1.51483 10.7655 1.08999 11.1237 0.782578C11.4819 0.475166 11.9483 0.307725 12.43 0.313579C12.9117 0.319433 13.3735 0.498153 13.7234 0.81417C14.0733 1.13019 14.2856 1.56033 14.3182 2.01899C14.3182 2.05937 14.3182 2.09975 14.3182 2.13812L16.542 3.67258C16.8708 3.45455 17.2629 3.34023 17.6632 3.34566C18.0636 3.35109 18.4521 3.47601 18.7743 3.70287L21.6836 1.59298L21.5609 1.44357ZM21.5418 6.16408H24.1846C24.2577 6.16407 24.3279 6.19166 24.3798 6.24083C24.4317 6.29 24.4612 6.35675 24.4618 6.42655V16.227C24.4612 16.2969 24.4318 16.3639 24.38 16.4134C24.3281 16.4629 24.2579 16.4909 24.1846 16.4914H21.5418C21.5054 16.4914 21.4694 16.4846 21.4358 16.4713C21.4021 16.458 21.3716 16.4385 21.3458 16.414C21.3201 16.3894 21.2997 16.3603 21.2857 16.3282C21.2718 16.2961 21.2646 16.2617 21.2646 16.227V6.42655C21.2652 6.35675 21.2947 6.29 21.3466 6.24083C21.3985 6.19166 21.4687 6.16407 21.5418 6.16408ZM16.3114 9.52173H18.9541C18.9905 9.52173 19.0265 9.52857 19.0602 9.54187C19.0938 9.55516 19.1244 9.57464 19.1501 9.5992C19.1758 9.62376 19.1963 9.65292 19.2102 9.68501C19.2241 9.7171 19.2313 9.75149 19.2313 9.78623V16.227C19.2307 16.2969 19.2013 16.3639 19.1495 16.4134C19.0976 16.4629 19.0274 16.4909 18.9541 16.4914H16.3114C16.275 16.4914 16.2389 16.4846 16.2053 16.4713C16.1717 16.458 16.1411 16.4385 16.1154 16.414C16.0896 16.3894 16.0692 16.3603 16.0553 16.3282C16.0413 16.2961 16.0342 16.2617 16.0342 16.227V9.78623C16.0342 9.71608 16.0634 9.6488 16.1154 9.5992C16.1673 9.5496 16.2378 9.52173 16.3114 9.52173ZM11.0788 6.16408H13.7236C13.7966 6.16408 13.8665 6.19173 13.9181 6.24095C13.9697 6.29018 13.9987 6.35694 13.9987 6.42655V16.227C13.9982 16.2966 13.9691 16.3633 13.9177 16.4127C13.8662 16.4621 13.7966 16.4904 13.7236 16.4914H11.0788C11.0054 16.4909 10.9353 16.4629 10.8834 16.4134C10.8315 16.3639 10.8021 16.2969 10.8016 16.227V6.42655C10.8022 6.35675 10.8316 6.29 10.8835 6.24083C10.9354 6.19166 11.0056 6.16407 11.0788 6.16408ZM5.84831 10.0628H8.49105C8.52745 10.0628 8.56349 10.0697 8.59712 10.083C8.63075 10.0963 8.66131 10.1157 8.68705 10.1403C8.71278 10.1649 8.7332 10.194 8.74713 10.2261C8.76106 10.2582 8.76823 10.2926 8.76823 10.3273V16.227C8.76768 16.2969 8.73829 16.3639 8.68643 16.4134C8.63457 16.4629 8.56439 16.4909 8.49105 16.4914H5.84831C5.81191 16.4914 5.77586 16.4846 5.74224 16.4713C5.70861 16.458 5.67805 16.4385 5.65231 16.414C5.62657 16.3894 5.60616 16.3603 5.59223 16.3282C5.5783 16.2961 5.57113 16.2617 5.57113 16.227V10.3273C5.57113 10.2572 5.60033 10.1899 5.65231 10.1403C5.70429 10.0907 5.77479 10.0628 5.84831 10.0628Z" fill="#B94217"/>
</g>
<defs>
<clipPath id="clip0_650_15347">
<rect width="26" height="21" fill="white"/>
</clipPath>
</defs>
</svg>
