<svg width="35" height="35" viewBox="0 0 35 35" fill="none" xmlns="http://www.w3.org/2000/svg">
<path d="M11.6673 15.8733C12.0244 15.8733 12.3287 15.7475 12.5801 15.4961C12.8316 15.2446 12.9573 14.9403 12.9573 14.5832C12.9573 14.2261 12.8316 13.9218 12.5801 13.6704C12.3287 13.4189 12.0244 13.2932 11.6673 13.2932C11.3102 13.2932 11.0059 13.4189 10.7544 13.6704C10.503 13.9218 10.3772 14.2261 10.3772 14.5832C10.3772 14.9403 10.503 15.2446 10.7544 15.4961C11.0059 15.7475 11.3102 15.8733 11.6673 15.8733ZM17.5006 15.8733C17.8577 15.8733 18.162 15.7475 18.4135 15.4961C18.6649 15.2446 18.7907 14.9403 18.7907 14.5832C18.7907 14.2261 18.6649 13.9218 18.4135 13.6704C18.162 13.4189 17.8577 13.2932 17.5006 13.2932C17.1435 13.2932 16.8392 13.4189 16.5878 13.6704C16.3363 13.9218 16.2106 14.2261 16.2106 14.5832C16.2106 14.9403 16.3363 15.2446 16.5878 15.4961C16.8392 15.7475 17.1435 15.8733 17.5006 15.8733ZM23.334 15.8733C23.691 15.8733 23.9953 15.7475 24.2468 15.4961C24.4983 15.2446 24.624 14.9403 24.624 14.5832C24.624 14.2261 24.4983 13.9218 24.2468 13.6704C23.9953 13.4189 23.691 13.2932 23.334 13.2932C22.9769 13.2932 22.6726 13.4189 22.4211 13.6704C22.1696 13.9218 22.0439 14.2261 22.0439 14.5832C22.0439 14.9403 22.1696 15.2446 22.4211 15.4961C22.6726 15.7475 22.9769 15.8733 23.334 15.8733ZM3.64648 30.6809V6.28198C3.64648 5.54533 3.90169 4.92179 4.41211 4.41138C4.92253 3.90096 5.54606 3.64575 6.28271 3.64575H28.7185C29.4552 3.64575 30.0787 3.90096 30.5891 4.41138C31.0995 4.92179 31.3547 5.54533 31.3547 6.28198V22.8845C31.3547 23.6211 31.0995 24.2446 30.5891 24.7551C30.0787 25.2655 29.4552 25.5207 28.7185 25.5207H8.80672L3.64648 30.6809Z" fill="#27528F"/>
</svg>
