<svg width="35" height="35" viewBox="0 0 35 35" fill="none" xmlns="http://www.w3.org/2000/svg">
<path d="M5.32955 28.1569C4.60459 28.1569 3.98398 27.8987 3.46773 27.3825C2.95148 26.8662 2.69336 26.2456 2.69336 25.5207V11.0777H4.88079V25.5207C4.88079 25.6328 4.92754 25.7357 5.02104 25.8292C5.11452 25.9227 5.21736 25.9694 5.32955 25.9694H27.9616V28.1569H5.32955ZM10.4336 23.0527C9.70871 23.0527 9.0881 22.7946 8.57183 22.2784C8.05558 21.7621 7.79745 21.1415 7.79745 20.4166V9.36691C7.79745 8.64197 8.05558 8.02136 8.57183 7.50509C9.0881 6.98884 9.70871 6.73071 10.4336 6.73071H29.6723C30.3973 6.73071 31.0179 6.98884 31.5342 7.50509C32.0504 8.02136 32.3085 8.64197 32.3085 9.36691V20.4166C32.3085 21.1415 32.0504 21.7621 31.5342 22.2784C31.0179 22.7946 30.3973 23.0527 29.6723 23.0527H10.4336ZM12.6211 20.8653C12.6211 20.138 12.363 19.5168 11.8467 19.0017C11.3305 18.4866 10.7099 18.2291 9.98492 18.2291V20.4166C9.98492 20.5381 10.0293 20.6432 10.1181 20.7321C10.2069 20.8209 10.3121 20.8653 10.4336 20.8653H12.6211ZM27.4849 20.8653H29.6723C29.7939 20.8653 29.8991 20.8209 29.9879 20.7321C30.0767 20.6432 30.1211 20.5381 30.1211 20.4166V18.2291C29.3938 18.2291 28.7726 18.4872 28.2575 19.0035C27.7425 19.5197 27.4849 20.1404 27.4849 20.8653ZM20.053 18.5375C21.072 18.5375 21.9343 18.1846 22.6401 17.4788C23.3459 16.7731 23.6988 15.9107 23.6988 14.8917C23.6988 13.8728 23.3459 13.0104 22.6401 12.3046C21.9343 11.5989 21.072 11.246 20.053 11.246C19.0341 11.246 18.1717 11.5989 17.4659 12.3046C16.7601 13.0104 16.4072 13.8728 16.4072 14.8917C16.4072 15.9107 16.7601 16.7731 17.4659 17.4788C18.1717 18.1846 19.0341 18.5375 20.053 18.5375ZM9.98492 11.5544C10.7122 11.5544 11.3334 11.2962 11.8485 10.78C12.3636 10.2637 12.6211 9.64311 12.6211 8.91818H10.4336C10.3121 8.91818 10.2069 8.96258 10.1181 9.0514C10.0293 9.14021 9.98492 9.24538 9.98492 9.36691V11.5544ZM30.1211 11.5544V9.36691C30.1211 9.24538 30.0767 9.14021 29.9879 9.0514C29.8991 8.96258 29.7939 8.91818 29.6723 8.91818H27.4849C27.4849 9.64547 27.743 10.2667 28.2593 10.7817C28.7755 11.2968 29.3962 11.5544 30.1211 11.5544Z" fill="#B94217"/>
</svg>
