<svg width="40" height="19" viewBox="0 0 40 19" fill="none" xmlns="http://www.w3.org/2000/svg">
<g id="send-money-icon 2" clip-path="url(#clip0_650_15353)">
<path id="Vector" fill-rule="evenodd" clip-rule="evenodd" d="M3.93229 3.87689V19H30.4232L30.3809 13.5691C29.4736 13.5723 28.5706 13.694 27.6953 13.931V14.4156C27.103 14.4291 26.5401 14.6744 26.1292 15.098C25.7182 15.5216 25.4926 16.0891 25.5013 16.6771H8.82813C8.82813 15.2653 7.79948 14.267 6.54948 14.2767V8.28039C7.14236 8.26766 7.7061 8.02275 8.11773 7.59908C8.52936 7.17541 8.75548 6.60737 8.74675 6.01887H23.2845C23.431 5.91549 23.571 5.81534 23.6979 5.6958C24.5394 4.98555 25.4614 4.37512 26.4453 3.87689H3.93229ZM40 7.99932L33.3398 14.5577L33.3724 11.2624C29.2057 10.3675 24.4987 11.4207 21.9792 14.548C22.4609 8.07686 28.3496 4.84611 33.431 4.68458L33.4603 1.32137L40 7.99609V7.99932ZM20.1823 9.77623C19.8623 9.17285 19.3693 8.6772 18.7655 8.35195C18.1617 8.02671 17.4743 7.88648 16.7901 7.94901C16.106 8.01154 15.456 8.27401 14.9222 8.70324C14.3884 9.13246 13.9948 9.70915 13.7913 10.3604C13.5878 11.0116 13.5834 11.7081 13.7787 12.3618C13.974 13.0155 14.3603 13.597 14.8886 14.0328C15.417 14.4686 16.0637 14.7391 16.747 14.8102C17.4302 14.8812 18.1194 14.7495 18.7272 14.4317C19.5421 14.0058 20.1532 13.276 20.426 12.403C20.6989 11.53 20.6112 10.5851 20.1823 9.77623ZM0 0V14.0893H1.81315V3.82843C1.80889 3.59704 1.85331 3.36732 1.94358 3.15394C2.03385 2.94055 2.16797 2.74821 2.33739 2.58919C2.5068 2.43017 2.70777 2.30798 2.92747 2.23042C3.14716 2.15286 3.38074 2.12164 3.61328 2.13875H24.9935V0H0Z" fill="#B94217"/>
</g>
<defs>
<clipPath id="clip0_650_15353">
<rect width="40" height="19" fill="white"/>
</clipPath>
</defs>
</svg>
