<svg width="35" height="28" viewBox="0 0 35 28" fill="none" xmlns="http://www.w3.org/2000/svg">
<g id="task_alt_black_24dp (1) 2" clip-path="url(#clip0_279_3393)">
<g id="Group">
<path id="Vector" fill-rule="evenodd" clip-rule="evenodd" d="M2.81267 27.4869V15.7338C2.24073 15.9743 1.70582 15.9799 1.26148 15.8142C0.914555 15.6858 0.621465 15.4563 0.406702 15.1598C0.191655 14.8633 0.0549363 14.5023 0.0130662 14.1042C-0.050451 13.4875 0.118454 12.7898 0.599533 12.1355C0.623743 12.1037 0.650802 12.0716 0.682703 12.0445L14.6206 0.147513C14.8015 -0.0340701 15.08 -0.0527579 15.2803 0.117924L24.1117 7.62577C22.7221 8.2163 21.5335 9.22856 20.8239 10.6644C18.2824 8.43464 15.5925 6.11361 15.0604 5.66074C13.9393 6.59326 4.18014 14.8097 4.18014 15.1567V27.4922L2.81267 27.4869ZM18.3693 27.9999V25.7595C19.7903 25.0678 24.1422 23.7521 24.3464 21.8503C24.3923 21.4211 23.4663 19.7841 23.2541 18.9998C22.7992 18.2081 22.6369 16.9501 23.1336 16.1135C23.331 15.7808 23.247 14.5683 23.247 14.1108C23.247 9.55653 30.5452 9.55498 30.5452 14.1108C30.5452 14.6867 30.4233 15.7447 30.7101 16.1976C31.1895 16.9557 30.9417 18.2978 30.5384 18.9995C30.2798 19.8239 29.2959 21.3838 29.38 21.85C29.6927 23.5877 33.7288 24.755 34.9994 25.3727V27.9983L18.3693 27.9999ZM15.4734 14.8767V19.6819H19.416V19.6688C19.416 18.3439 18.9201 17.1391 18.1215 16.2655C17.4251 15.5039 16.4991 14.9941 15.4734 14.8767ZM15.4734 20.697V24.329C15.2102 24.7812 15.0473 25.3104 15.0182 25.8791H9.67396V19.666C9.67396 18.0607 10.2747 16.6019 11.24 15.5466C12.2072 14.4917 13.5411 13.8348 15.0091 13.8348C16.4774 13.8348 17.8113 14.4917 18.776 15.5466C19.1414 15.9465 19.4545 16.4038 19.7023 16.904C19.6915 17.1155 19.6906 17.3263 19.6991 17.5356C19.7382 18.4703 19.9743 19.4153 20.3417 20.2158V21.9793C20.0626 22.0347 19.7436 22.092 19.416 22.1618V20.6967L15.4734 20.697ZM14.5448 24.8669V20.697H10.6025V24.8694H14.5448V24.8669ZM14.5448 19.6816V14.8767C13.5166 14.9966 12.5932 15.5043 11.8973 16.2655C11.0984 17.1391 10.6028 18.3439 10.6028 19.6688V19.6819L14.5448 19.6816ZM8.69471 26.9851H15.0134V28.0002H8.69471V26.9851ZM22.9043 0.948599L27.0985 1.13579V7.04893L26.9071 7.04582V7.0589L26.7253 7.06139L22.9043 4.30369V0.948599Z" fill="#0D7344"/>
</g>
</g>
<defs>
<clipPath id="clip0_279_3393">
<rect width="35" height="28" fill="white"/>
</clipPath>
</defs>
</svg>
