<svg width="26" height="28" viewBox="0 0 26 28" fill="none" xmlns="http://www.w3.org/2000/svg">
<g id="task_alt_black_24dp (1) 2" clip-path="url(#clip0_279_3400)">
<path id="Vector" fill-rule="evenodd" clip-rule="evenodd" d="M23.2208 17.0648L25.7103 18.9128C25.8682 19.0311 25.9703 19.2036 25.9943 19.3926C26.0182 19.5817 25.9622 19.772 25.8382 19.9222L24.7517 21.2233L21.0646 18.4889L22.1512 17.1878C22.277 17.0391 22.4599 16.9432 22.6602 16.921C22.8605 16.8988 23.062 16.9521 23.2208 17.0693V17.0648ZM6.15713 18.9128C6.0774 18.9176 5.99746 18.907 5.92226 18.8815C5.84706 18.856 5.77819 18.8163 5.7199 18.7647C5.66162 18.7131 5.61517 18.6508 5.58341 18.5817C5.55165 18.5125 5.53527 18.4379 5.53527 18.3625C5.53527 18.2871 5.55165 18.2125 5.58341 18.1433C5.61517 18.0741 5.66162 18.0118 5.7199 17.9602C5.77819 17.9086 5.84706 17.8689 5.92226 17.8434C5.99746 17.818 6.0774 17.8073 6.15713 17.8122H18.4497L17.5466 18.9128H6.15713ZM6.85736 14.6654V9.98958C6.62776 10.0818 6.37069 10.0932 6.13299 10.0215C5.97667 9.97376 5.83887 9.88336 5.737 9.76172C5.63995 9.63957 5.58061 9.49446 5.56556 9.34245C5.55327 9.20139 5.57085 9.05944 5.61728 8.92486C5.66371 8.79029 5.73806 8.66578 5.836 8.55859C5.836 8.55859 5.86014 8.53353 5.87463 8.52214L12.3143 3.78255C12.3556 3.74764 12.4084 3.72723 12.4638 3.72474C12.5192 3.72225 12.5738 3.73783 12.6185 3.76888L19.0581 8.49935L19.0871 8.52441C19.2154 8.64192 19.3102 8.78815 19.3625 8.94951C19.4149 9.11086 19.4231 9.28209 19.3865 9.44727C19.3522 9.58469 19.2816 9.71168 19.1813 9.81641C19.0822 9.92036 18.9568 9.99879 18.8167 10.0443C18.6921 10.0844 18.5603 10.1008 18.4289 10.0926C18.2975 10.0844 18.1692 10.0517 18.0513 9.99642V14.6562H17.4211V9.74121C17.4211 9.63411 12.9976 6.33691 12.5098 5.97689C11.9931 6.34831 7.48514 9.62044 7.48514 9.75944V14.6722L6.85736 14.6654ZM12.4857 9.36751C13.2077 9.36811 13.8999 9.63872 14.4109 10.1201C14.9218 10.6014 15.2098 11.2542 15.2117 11.9355V14.6699H9.76449V11.9355C9.7664 11.255 10.0537 10.6029 10.5636 10.1217C11.0735 9.64046 11.7646 9.36932 12.4857 9.36751ZM12.7272 9.82324V11.9401H14.7288C14.7279 11.4164 14.5221 10.9114 14.1509 10.522C13.7797 10.1326 13.2693 9.88621 12.7175 9.83008L12.7272 9.82324ZM12.7272 12.3867V14.2233H14.7288V12.389L12.7272 12.3867ZM12.2442 14.2233V12.389H10.2377V14.2256L12.2442 14.2233ZM12.2442 11.9447V9.82552C11.6929 9.88262 11.1831 10.1293 10.8121 10.5185C10.4411 10.9076 10.2349 11.4121 10.2329 11.9355L12.2442 11.9447ZM16.1317 4.17448H18.0633V6.64225L16.1317 5.43685V4.17448ZM6.23198 21.9798C6.08194 21.9708 5.94117 21.9081 5.83831 21.8046C5.73544 21.7011 5.67819 21.5646 5.67819 21.4227C5.67819 21.2808 5.73544 21.1442 5.83831 21.0407C5.94117 20.9373 6.08194 20.8746 6.23198 20.8656H15.9482L15.0331 21.9798H6.23198ZM13.862 26.5371C13.9046 26.5336 13.9474 26.5336 13.99 26.5371V26.5576L13.9658 26.8333C13.9296 27.2891 13.8982 27.6582 13.8982 27.9909H1.80609C1.32876 27.9909 0.870826 27.8126 0.532395 27.4949C0.193963 27.1772 0.0025526 26.746 0 26.2956L0 1.70443C0 1.25238 0.190284 0.818857 0.528992 0.499215C0.8677 0.179573 1.32709 0 1.80609 0L23.373 0C23.8515 0.000603807 24.3103 0.180443 24.6485 0.50002C24.9867 0.819597 25.1766 1.25278 25.1766 1.70443V14.4648C25.1791 14.6127 25.1629 14.7604 25.1283 14.9046L25.0245 14.8249C24.6167 14.5218 24.1369 14.3169 23.6265 14.2279V1.69531C23.6249 1.63427 23.5993 1.57598 23.5546 1.53176C23.51 1.48754 23.4496 1.46056 23.385 1.45605H1.80609C1.73882 1.45679 1.67425 1.48116 1.625 1.52441C1.57887 1.5709 1.55226 1.63166 1.55015 1.69531V26.2933C1.55062 26.3248 1.55769 26.3559 1.57095 26.3849C1.58421 26.4138 1.6034 26.44 1.62741 26.4619C1.67575 26.5068 1.74071 26.5321 1.80851 26.5326L13.862 26.5371ZM20.659 26.2044C19.7994 26.5645 19.1088 26.7445 18.2444 27.1159C16.4142 27.7083 16.4794 28.1094 16.617 26.3981L16.9792 23.4701L20.5238 19.1406L24.2108 21.875L20.6614 26.2044H20.659ZM17.6094 23.9258L20.024 25.7259L18.3338 26.4346C17.0058 26.9883 17.0468 27.2549 17.2641 25.9629L17.6094 23.9258Z" fill="#0D7344"/>
</g>
<defs>
<clipPath id="clip0_279_3400">
<rect width="26" height="28" fill="white"/>
</clipPath>
</defs>
</svg>
