<svg width="35" height="28" viewBox="0 0 35 28" fill="none" xmlns="http://www.w3.org/2000/svg">
<g id="Group">
<path id="Vector" fill-rule="evenodd" clip-rule="evenodd" d="M8.4965 24.4339V14.1559H13.2275C15.2327 14.5067 17.238 15.5701 19.2432 16.8033H22.9175C24.5809 16.9008 25.4525 18.5488 23.8346 19.6317C22.5472 20.556 20.8468 20.5031 19.1036 20.35C17.9016 20.2915 17.8503 21.87 19.1036 21.8755C19.5394 21.9089 20.0122 21.8087 20.4252 21.8087C22.5985 21.8059 24.3901 21.3995 25.4867 19.7208L26.0364 18.4653L31.5023 15.8179C34.2367 14.9382 36.182 17.7331 34.1654 19.6791C30.2063 22.4935 26.1475 24.8097 21.9946 26.6805C18.9783 28.4733 15.9619 28.412 12.9484 26.6805L8.4965 24.4339ZM12.0797 0L32.4194 5.32551L29.5854 15.662L9.2456 10.3364L12.0797 0ZM21.6699 4.7938C23.3903 5.24478 24.41 6.96799 23.9486 8.64943C23.4871 10.3309 21.724 11.3275 20.0037 10.8765C18.2833 10.4255 17.2636 8.70233 17.725 7.02088C18.1836 5.33943 19.9467 4.34281 21.6699 4.7938ZM15.0476 2.46371L28.5714 6.00477C28.3407 6.8455 28.8534 7.71684 29.7164 7.93955L28.597 12.0262C27.7368 11.8008 26.8453 12.3019 26.6174 13.1454L13.0908 9.6043C13.3215 8.76357 12.8088 7.89501 11.9458 7.66952L13.0652 3.58282C13.9254 3.80831 14.8169 3.30722 15.0476 2.46371ZM0 13.1676H7.07235V25.4667H0V13.1676Z" fill="#0374AD"/>
</g>
</svg>
