<svg width="35" height="29" viewBox="0 0 35 29" fill="none" xmlns="http://www.w3.org/2000/svg">
<g clip-path="url(#clip0_645_8601)">
<path fill-rule="evenodd" clip-rule="evenodd" d="M2.81242 27.9869V16.2338C2.24048 16.4743 1.70557 16.4799 1.26124 16.3142C0.914311 16.1858 0.621221 15.9563 0.406458 15.6598C0.191411 15.3633 0.0546922 15.0023 0.0128221 14.6042C-0.0506952 13.9875 0.118209 13.2898 0.599289 12.6355C0.623499 12.6037 0.650558 12.5716 0.682459 12.5445L14.6204 0.647513C14.8012 0.46593 15.0798 0.447242 15.28 0.617924L24.1115 8.12577C22.7218 8.7163 21.5332 9.72856 20.8237 11.1644C18.2822 8.93464 15.5922 6.61361 15.0601 6.16074C13.9391 7.09326 4.1799 15.3097 4.1799 15.6567V27.9922L2.81242 27.9869ZM18.369 28.4999V26.2595C19.79 25.5678 24.142 24.2521 24.3462 22.3503C24.3921 21.9211 23.4661 20.2841 23.2539 19.4998C22.799 18.7081 22.6366 17.4501 23.1334 16.6135C23.3308 16.2808 23.2467 15.0683 23.2467 14.6108C23.2467 10.0565 30.545 10.055 30.545 14.6108C30.545 15.1867 30.4231 16.2447 30.7099 16.6976C31.1893 17.4557 30.9415 18.7978 30.5381 19.4995C30.2795 20.3239 29.2957 21.8838 29.3797 22.35C29.6925 24.0877 33.7285 25.255 34.9992 25.8727V28.4983L18.369 28.4999ZM15.4732 15.3767V20.1819H19.4158V20.1688C19.4158 18.8439 18.9199 17.6391 18.1212 16.7655C17.4248 16.0039 16.4988 15.4941 15.4732 15.3767ZM15.4732 21.197V24.829C15.21 25.2812 15.047 25.8104 15.018 26.3791H9.67371V20.166C9.67371 18.5607 10.2744 17.1019 11.2397 16.0466C12.207 14.9917 13.5409 14.3348 15.0089 14.3348C16.4772 14.3348 17.811 14.9917 18.7758 16.0466C19.1412 16.4465 19.4542 16.9038 19.702 17.404C19.6912 17.6155 19.6904 17.8263 19.6989 18.0356C19.7379 18.9703 19.974 19.9153 20.3415 20.7158V22.4793C20.0623 22.5347 19.7433 22.592 19.4158 22.6618V21.1967L15.4732 21.197ZM14.5446 25.3669V21.197H10.6023V25.3694H14.5446V25.3669ZM14.5446 20.1816V15.3767C13.5164 15.4966 12.5929 16.0043 11.8971 16.7655C11.0982 17.6391 10.6025 18.8439 10.6025 20.1688V20.1819L14.5446 20.1816ZM8.69446 27.4851H15.0131V28.5002H8.69446V27.4851ZM22.9041 1.4486L27.0982 1.63579V7.54893L26.9068 7.54582V7.5589L26.7251 7.56139L22.9041 4.80369V1.4486Z" fill="#B94217"/>
</g>
<defs>
<clipPath id="clip0_645_8601">
<rect width="35" height="28" fill="white" transform="translate(0 0.5)"/>
</clipPath>
</defs>
</svg>
