<svg width="35" height="28" viewBox="0 0 35 28" fill="none" xmlns="http://www.w3.org/2000/svg">
<g clip-path="url(#clip0_1346_856)">
<path fill-rule="evenodd" clip-rule="evenodd" d="M22.5159 19.8747C21.2413 21.0442 19.7718 22.0557 18.1523 22.8785C18.0518 22.9409 17.9308 22.9762 17.8055 22.9796C17.6802 22.983 17.5567 22.9543 17.4516 22.8974C15.1458 21.6853 13.0984 20.1626 11.3932 18.3918C9.16585 16.0846 7.77303 13.5262 7.29736 11.0626C6.81315 8.56341 7.26603 6.15901 8.76139 4.20469C9.37106 3.4145 10.1344 2.71404 11.0201 2.13194C13.1307 0.72483 15.5375 -0.0142561 17.9443 -4.29388e-05C20.3867 0.0342363 22.7246 0.829741 24.4954 2.22906C25.1772 2.74867 25.767 3.34604 26.2472 4.00334C27.8536 6.20639 28.2011 9.01586 27.4947 11.8632C26.7121 14.8523 24.9901 17.6152 22.5045 19.87L22.5159 19.8747ZM7.21191 17.8115C7.35055 17.8054 7.48922 17.8228 7.61948 17.8627C7.74974 17.9027 7.86886 17.9642 7.96958 18.0437C8.0703 18.1232 8.15051 18.2188 8.20532 18.3249C8.26014 18.431 8.28841 18.5452 8.28841 18.6607C8.28841 18.7762 8.26014 18.8904 8.20532 18.9965C8.15051 19.1026 8.0703 19.1982 7.96958 19.2777C7.86886 19.3572 7.74974 19.4187 7.61948 19.4587C7.48922 19.4986 7.35055 19.516 7.21191 19.5099H5.29216L2.76571 26.2944H32.1631L29.4202 19.5028H27.8337C27.695 19.5089 27.5564 19.4915 27.4261 19.4515C27.2958 19.4116 27.1767 19.3501 27.076 19.2706C26.9753 19.1911 26.8951 19.0955 26.8403 18.9894C26.7854 18.8833 26.7572 18.7691 26.7572 18.6536C26.7572 18.5381 26.7854 18.4239 26.8403 18.3178C26.8951 18.2117 26.9753 18.1161 27.076 18.0366C27.1767 17.9571 27.2958 17.8956 27.4261 17.8556C27.5564 17.8157 27.695 17.7983 27.8337 17.8044H30.8813L35 27.9905H0L3.79395 17.8044L7.21191 17.8115ZM17.4829 4.01282L11.4189 8.79793L12.843 9.42331L17.443 5.58101L22.1114 9.42331L23.5356 8.79793L17.4829 4.01282ZM13.3557 10.1055L17.4886 6.66832L21.6101 10.1055V13.4788H18.5994V11.1099H16.3407V13.4788H13.3557V10.1055Z" fill="#B94217"/>
</g>
<defs>
<clipPath id="clip0_1346_856">
<rect width="35" height="28" fill="white"/>
</clipPath>
</defs>
</svg>
