<svg width="35" height="28" viewBox="0 0 35 28" fill="none" xmlns="http://www.w3.org/2000/svg">
<g id="task_alt_black_24dp (1) 2" clip-path="url(#clip0_279_3411)">
<path id="Vector" fill-rule="evenodd" clip-rule="evenodd" d="M22.8389 0.113054C24.65 0.339927 26.3987 0.925329 27.9843 1.83558C29.57 2.74583 30.9614 3.96296 32.0783 5.41694C36.7842 11.5183 35.6891 20.3046 29.6324 25.0452C29.627 25.0486 29.6229 25.0527 29.6174 25.0576C23.5628 29.7968 14.8415 28.6943 10.137 22.595C10.1343 22.5909 10.1309 22.5867 10.1274 22.5833C9.51898 21.7935 8.99559 20.9408 8.56611 20.0395C9.43846 20.0139 10.3051 19.8887 11.1494 19.6662C11.4251 20.1534 11.7346 20.6203 12.0757 21.0635C15.9517 26.0774 23.1273 26.9761 28.1032 23.0709C33.0798 19.167 33.9712 11.9383 30.0959 6.92506C27.3424 3.36411 22.776 1.75408 18.4188 2.80769C18.0016 2.03547 17.4999 1.31272 16.923 0.652946C17.0912 0.597855 17.2614 0.548962 17.433 0.500757C19.1946 0.0097588 21.0349 -0.121082 22.8464 0.113054H22.8389ZM0 8.89456V7.83406C0.271387 3.4984 3.8459 0.0655384 8.21748 0.0634725H8.2209C12.7723 0.0627839 16.4616 3.77729 16.4644 8.36224C16.4664 12.9472 12.7777 16.6645 8.22637 16.6665C3.85068 16.6679 0.271387 13.2337 0 8.89456ZM7.28437 11.0679H9.17246V12.7516H7.28437V11.0679ZM9.17109 10.0893H7.28437C7.09639 7.77828 6.70127 7.82786 6.70127 5.52024C6.70127 4.66839 7.38691 3.97838 8.23184 3.97838C9.07676 3.97838 9.76309 4.66839 9.76309 5.52024C9.76309 7.82648 9.36318 7.78103 9.17109 10.0893ZM20.3451 7.19707C20.4299 6.5167 21.0451 6.03465 21.7185 6.12004H21.7212C22.3925 6.21094 22.8648 6.83071 22.778 7.50627L21.9782 13.9857L26.4257 17.4667C26.9623 17.8868 27.0614 18.6649 26.6444 19.2076C26.4446 19.4669 26.1508 19.6358 25.8275 19.6772C25.5042 19.7199 25.1774 19.6304 24.9211 19.428L19.9432 15.5296C19.7714 15.4045 19.6349 15.2365 19.5474 15.042C19.4549 14.8333 19.4204 14.6031 19.4476 14.3761L20.3451 7.20051V7.19707Z" fill="#064F96"/>
</g>
<defs>
<clipPath id="clip0_279_3411">
<rect width="35" height="28" fill="white"/>
</clipPath>
</defs>
</svg>
