<svg width="30" height="30" viewBox="0 0 30 30" fill="none" xmlns="http://www.w3.org/2000/svg">
<g id="7312436_pdf_file_document_format_extension_icon 1">
<g id="Layer 51">
<path id="Vector" d="M18.0094 4.875H8.93437C8.52909 4.875 8.14041 5.036 7.85383 5.32258C7.56725 5.60916 7.40625 5.99784 7.40625 6.40312V15.8531C7.16364 15.9285 6.95122 16.079 6.79959 16.2829C6.64796 16.4867 6.56494 16.7334 6.5625 16.9875V20.7375C6.56494 20.9916 6.64796 21.2383 6.79959 21.4421C6.95122 21.646 7.16364 21.7965 7.40625 21.8719V23.625C7.41362 24.0254 7.57787 24.4069 7.86365 24.6874C8.14944 24.9679 8.53392 25.1251 8.93437 25.125H21.9094C22.3147 25.125 22.7033 24.964 22.9899 24.6774C23.2765 24.3908 23.4375 24.0022 23.4375 23.5969V10.3125L18.0094 4.875ZM7.7625 21.0656C7.66802 21.0656 7.5774 21.0281 7.51059 20.9613C7.44378 20.8945 7.40625 20.8039 7.40625 20.7094V16.9594C7.40625 16.8649 7.44378 16.7743 7.51059 16.7075C7.5774 16.6407 7.66802 16.6031 7.7625 16.6031H19.6875C19.7829 16.6031 19.8745 16.6403 19.9428 16.7069C20.0111 16.7734 20.0507 16.864 20.0531 16.9594V20.7094C20.0507 20.8047 20.0111 20.8953 19.9428 20.9619C19.8745 21.0284 19.7829 21.0657 19.6875 21.0656H7.7625ZM22.5938 23.5969C22.5938 23.7784 22.5216 23.9525 22.3933 24.0808C22.265 24.2091 22.0909 24.2812 21.9094 24.2812H8.93437C8.75287 24.2812 8.57879 24.2091 8.45045 24.0808C8.3221 23.9525 8.25 23.7784 8.25 23.5969V21.9094H19.6875C19.8459 21.9106 20.0029 21.8805 20.1496 21.8207C20.2963 21.761 20.4297 21.6728 20.5421 21.5612C20.6545 21.4497 20.7438 21.317 20.8046 21.1708C20.8655 21.0246 20.8969 20.8678 20.8969 20.7094V16.9594C20.8895 16.6444 20.7585 16.3449 20.5323 16.1257C20.306 15.9064 20.0026 15.785 19.6875 15.7875H8.25V6.4125C8.25 6.23099 8.3221 6.05692 8.45045 5.92857C8.57879 5.80023 8.75287 5.72813 8.93437 5.72813H17.6531L17.8313 5.90625V9.375C17.8313 9.6684 17.9478 9.94977 18.1553 10.1572C18.3627 10.3647 18.6441 10.4812 18.9375 10.4812H22.4156L22.5938 10.6594V23.5969Z" fill="#27528F"/>
<path id="Vector_2" d="M11.8313 17.5504C11.6179 17.4603 11.388 17.4156 11.1563 17.4191H9.88135V20.3535H10.5657V19.5473H11.1563C11.388 19.5509 11.6179 19.5062 11.8313 19.416C12.0106 19.3395 12.1637 19.2125 12.272 19.0504C12.3766 18.8814 12.432 18.6866 12.432 18.4879C12.432 18.2892 12.3766 18.0944 12.272 17.9254C12.1617 17.7629 12.0094 17.6333 11.8313 17.5504ZM11.5782 18.8629C11.4451 18.9589 11.2826 19.0054 11.1188 18.9941H10.5657V17.9723H11.1188C11.2842 17.9594 11.4484 18.0096 11.5782 18.1129C11.6336 18.1574 11.6772 18.215 11.705 18.2804C11.7328 18.3458 11.744 18.4171 11.7376 18.4879C11.7432 18.5586 11.7316 18.6296 11.7039 18.6949C11.6761 18.7602 11.633 18.8178 11.5782 18.8629Z" fill="#27528F"/>
<path id="Vector_3" d="M15.0844 17.6066C14.8216 17.4793 14.5327 17.4151 14.2407 17.4191H12.9094V20.3535H14.2407C14.5319 20.3605 14.8208 20.2995 15.0844 20.1754C15.3163 20.0686 15.5141 19.8999 15.6563 19.6879C15.7912 19.4541 15.8623 19.189 15.8623 18.9191C15.8623 18.6492 15.7912 18.3841 15.6563 18.1504C15.5223 17.9176 15.3237 17.7287 15.0844 17.6066ZM14.9063 19.5566C14.8131 19.6419 14.7035 19.7075 14.5843 19.7494C14.4651 19.7912 14.3386 19.8086 14.2125 19.8004H13.5844V17.9816H14.2125C14.3386 17.9734 14.4651 17.9908 14.5843 18.0326C14.7035 18.0745 14.8131 18.1401 14.9063 18.2254C14.9956 18.3107 15.0654 18.4144 15.1107 18.5293C15.156 18.6443 15.1758 18.7677 15.1688 18.891C15.1752 19.0143 15.1551 19.1375 15.1098 19.2523C15.0645 19.3671 14.9951 19.4709 14.9063 19.5566Z" fill="#27528F"/>
<path id="Vector_4" d="M16.3687 20.3527H17.0437V19.284H18.403V18.7402H17.0437V17.9715H18.5812V17.4277H16.3687V20.3527Z" fill="#27528F"/>
</g>
</g>
</svg>
