<svg width="35" height="28" viewBox="0 0 35 28" fill="none" xmlns="http://www.w3.org/2000/svg">
<g clip-path="url(#clip0_1346_889)">
<path fill-rule="evenodd" clip-rule="evenodd" d="M11.5515 13.7V10.0445C11.0722 10.198 10.6241 10.2014 10.2517 10.0954C9.96099 10.0137 9.71551 9.86718 9.53531 9.67774C9.35525 9.4886 9.24068 9.25833 9.20568 9.0042C9.15257 8.61036 9.29373 8.16509 9.69705 7.74739C9.71749 7.72688 9.74012 7.70644 9.76664 7.68941L21.4453 0.094248C21.5966 -0.0217112 21.8302 -0.0338425 21.9978 0.075567L33.7032 7.65717C33.7217 7.6689 33.7382 7.68104 33.7543 7.69647C34.2968 8.18229 34.432 8.72125 34.3009 9.17666C34.2371 9.39687 34.1092 9.60061 33.9285 9.7699C33.7486 9.93874 33.5206 10.0672 33.2655 10.1435C32.8558 10.2661 32.3688 10.2628 31.8755 10.0683V15.4751C31.5293 15.5025 31.1737 15.559 30.8107 15.6479C30.7836 15.6541 30.7562 15.661 30.7292 15.6682V9.64893C30.7292 9.47664 22.7001 4.18865 21.8136 3.61403C20.8744 4.20909 12.6975 9.45454 12.6975 9.67609V13.8002C12.5917 13.7795 12.4855 13.7602 12.379 13.7422C12.2599 13.7221 12.1388 13.711 12.0172 13.7091L11.5515 13.7ZM0 14.2826H5.46957L5.15847 25.4899H0V14.2826ZM6.69587 24.5849L6.95591 15.2824L11.9779 15.38C14.098 15.7394 16.2001 16.7423 18.298 17.9005L22.1987 17.9763C23.9618 18.0991 24.8448 19.6079 23.1023 20.5543C21.7105 21.3633 19.9076 21.2811 18.0621 21.107C16.7882 21.0298 16.6923 22.4572 18.0234 22.4881C18.4842 22.5267 18.9897 22.4464 19.4284 22.4546C21.7371 22.4974 23.6491 22.1667 24.8552 20.6698L25.4721 19.5436L31.3413 17.2595C34.2672 16.5193 36.2597 19.09 34.0715 20.8078C29.798 23.2739 25.4288 25.2867 20.9737 26.8942C17.7266 28.4547 14.5265 28.3374 11.3686 26.7078L6.69587 24.5849ZM22.1596 9.06343V12.1309H25.4631V12.1223C25.4631 11.2764 25.0476 10.5076 24.3784 9.95016C23.7948 9.46377 23.0191 9.13827 22.1596 9.06343ZM22.1596 12.779V15.4425H25.4631V12.779H22.1596ZM21.3818 15.4412V12.779H18.0787V15.4425H21.3818V15.4412ZM21.3818 12.1309V9.06343C20.5204 9.14004 19.7465 9.46377 19.1632 9.95016C18.4939 10.5076 18.0783 11.2764 18.0783 12.1223V12.1309H21.3818ZM21.7708 8.39804C23.001 8.39804 24.1183 8.81762 24.9268 9.49111C25.7373 10.1665 26.2387 11.0977 26.2387 12.1206V16.0871H17.6967C17.6197 16.0707 17.5458 16.0455 17.4772 16.012C17.4174 15.9827 17.3586 15.9465 17.3007 15.9055V12.1206C17.3007 11.0958 17.8043 10.1646 18.6127 9.49111C19.423 8.81762 20.5408 8.39804 21.7708 8.39804ZM31.9 0.876233V4.67988L28.3858 2.74776V0.876233H31.9Z" fill="#B94217"/>
</g>
<defs>
<clipPath id="clip0_1346_889">
<rect width="35" height="28" fill="white"/>
</clipPath>
</defs>
</svg>
