<svg width="34" height="25" viewBox="0 0 34 25" fill="none" xmlns="http://www.w3.org/2000/svg">
<g id="hand-money-rupee-coin-icon 2" clip-path="url(#clip0_650_15350)">
<path id="Vector" fill-rule="evenodd" clip-rule="evenodd" d="M22.6141 0C25.9897 0 28.7318 2.66865 28.7318 5.966C28.7318 9.25796 25.9953 11.932 22.6141 11.932C19.2384 11.932 16.4964 9.26336 16.4964 5.966C16.4992 2.67404 19.2357 0 22.6141 0ZM0 10.6233H6.87028V22.5445H0V10.6233ZM8.25374 21.5434V11.5785H12.8496C14.7975 11.9185 16.7454 12.9493 18.6934 14.1446H22.2627C23.8786 14.2391 24.7253 15.8365 23.1536 16.8861C21.903 17.782 20.2511 17.7307 18.5578 17.5823C17.3901 17.5256 17.3403 19.0556 18.5578 19.061C18.9811 19.0934 19.4404 18.9962 19.8416 18.9962C21.9556 18.9935 23.6932 18.5996 24.7585 16.9725L25.2925 15.7555L30.6022 13.1894C33.2585 12.3368 35.1455 15.0459 33.1893 16.932C29.3433 19.66 25.4004 21.905 21.3662 23.7183C18.436 25.456 15.5059 25.3967 12.5785 23.7183L8.25374 21.5434ZM20.6081 2.89261H24.6257C24.6589 2.89261 24.6893 2.91959 24.6893 2.95467V3.551C24.6893 3.58608 24.6616 3.61306 24.6257 3.61306H23.3722C23.5687 3.83702 23.7126 4.10685 23.7762 4.40367H24.6257C24.6589 4.40367 24.6893 4.43065 24.6893 4.46573V5.06206C24.6893 5.09714 24.6616 5.12412 24.6257 5.12412H23.7734C23.696 5.4803 23.5078 5.7987 23.245 6.04425C22.8841 6.37968 22.4043 6.56625 21.9058 6.56503V6.56773H21.8477L24.0999 9.07178C24.1608 9.13923 24.0529 9.29034 24.0059 9.29034L22.9655 9.29574L20.561 6.62169C20.5517 6.61109 20.5453 6.59834 20.5424 6.58466C20.5395 6.57097 20.5402 6.55679 20.5444 6.54344V5.56395H21.9058V5.56665C22.1493 5.56665 22.3734 5.47221 22.5339 5.3238C22.5975 5.26444 22.6501 5.19968 22.6888 5.12682H20.6053C20.5721 5.12682 20.5417 5.09984 20.5417 5.06476V4.46843C20.5417 4.43335 20.5693 4.40637 20.6053 4.40637H22.6888C22.6473 4.33351 22.5947 4.26606 22.5339 4.20939C22.3734 4.05828 22.152 3.96654 21.9058 3.96654V3.96924H20.5444V2.95737C20.5444 2.91959 20.5749 2.89261 20.6081 2.89261Z" fill="#B94217"/>
</g>
<defs>
<clipPath id="clip0_650_15350">
<rect width="34" height="25" fill="white"/>
</clipPath>
</defs>
</svg>
