<svg width="35" height="28" viewBox="0 0 35 28" fill="none" xmlns="http://www.w3.org/2000/svg">
<path fill-rule="evenodd" clip-rule="evenodd" d="M3.2784 27.4896V15.735C2.61189 15.9755 1.98811 15.9808 1.46972 15.8152C1.06526 15.6869 0.723464 15.4572 0.472813 15.1606C0.222162 14.8641 0.0626571 14.5035 0.0142359 14.1054C-0.0598201 13.4883 0.136713 12.791 0.69783 12.1365C0.726313 12.1045 0.757644 12.0724 0.794672 12.0457L17.0471 0.146814C17.2579 -0.0348482 17.5826 -0.0535487 17.8162 0.117427L34.1056 11.9949C34.1313 12.0136 34.154 12.0323 34.1768 12.0564C34.9316 12.8177 35.1196 13.6619 34.9373 14.3752C34.8462 14.7279 34.6667 15.0431 34.4189 15.3049C34.1711 15.5667 33.855 15.7698 33.4961 15.89C32.9264 16.0823 32.2485 16.077 31.5621 15.7724V27.4576H29.967V15.1152C29.967 14.8454 18.7931 6.56109 17.5598 5.66079C16.2524 6.59315 4.87345 14.8107 4.87345 15.158V27.495L3.2784 27.4896ZM18.0412 14.8775V19.6835H22.6383V19.6701C22.6383 18.3451 22.0601 17.1402 21.1287 16.2667C20.317 15.5053 19.2375 14.995 18.0412 14.8775ZM18.0412 20.6987V24.8716H22.6383V20.6987H18.0412ZM16.9588 24.8689V20.6987H12.3616V24.8716H16.9588V24.8689ZM16.9588 19.6835V14.8775C15.7597 14.9977 14.683 15.5053 13.8713 16.2667C12.9399 17.1402 12.3616 18.3451 12.3616 19.6701V19.6835H16.9588ZM10.1371 26.9874H24.86V28.0026H10.1371V26.9874ZM17.5 13.8356C19.2118 13.8356 20.767 14.4928 21.8921 15.548C23.02 16.6059 23.7178 18.0646 23.7178 19.6675V25.8814H11.2793V19.6675C11.2793 18.0619 11.98 16.6033 13.1051 15.548C14.233 14.4928 15.7882 13.8356 17.5 13.8356ZM26.7057 0.948264L31.5963 1.13527V7.33048L26.7057 4.30367V0.948264Z" fill="#B94217"/>
</svg>
