<svg width="34" height="31" viewBox="0 0 34 31" fill="none" xmlns="http://www.w3.org/2000/svg">
<g id="Group">
<path id="Vector" fill-rule="evenodd" clip-rule="evenodd" d="M23.3418 0L14.0643 9.15504L16.3276 10.3538L23.2809 2.99685L30.356 10.3538L32.6193 9.15504L23.3418 0ZM0 18.6084L9.77279 18.0898L10.2072 29.0876L0.434408 29.6033L0 18.6084ZM11.4053 28.1174L11.0428 18.9262L15.1462 18.7617C16.8976 19.007 18.6768 19.888 20.4587 20.9222L23.6462 20.794C25.0933 20.8246 25.9067 22.2659 24.5426 23.2918C23.458 24.1616 21.9805 24.1755 20.4642 24.0975C19.4211 24.0863 19.4294 25.4997 20.5168 25.4635C20.8958 25.4774 21.3026 25.3715 21.6623 25.3576C23.5493 25.2795 25.0877 24.8558 25.9787 23.3141L26.4131 22.1711L31.0615 19.612C33.4023 18.731 34.9795 20.9529 33.3 22.7621C29.9658 25.4161 26.7313 27.8387 23.1979 29.6563C20.644 31.3652 18.0265 31.4154 15.3481 29.9713L11.4053 28.1174ZM16.8229 10.5935L23.3501 4.01439L29.8579 10.5935V17.05H25.1043V12.4892H21.535V17.05H16.8202V10.5935H16.8229Z" fill="#27528F"/>
</g>
</svg>
