<svg width="30" height="14" viewBox="0 0 30 14" fill="none" xmlns="http://www.w3.org/2000/svg">
<g clip-path="url(#clip0_660_23551)">
<path fill-rule="evenodd" clip-rule="evenodd" d="M2.94922 2.85666V14H22.8174L22.7856 9.9983C22.1052 10.0006 21.428 10.0903 20.7715 10.2649V10.622C20.3273 10.632 19.9051 10.8127 19.5969 11.1248C19.2887 11.437 19.1194 11.8552 19.126 12.2884H6.62109C6.62109 11.2481 5.84961 10.5125 4.91211 10.5196V6.10134C5.35677 6.09196 5.77957 5.9115 6.0883 5.59932C6.39702 5.28714 6.56661 4.86859 6.56006 4.43496H17.4634C17.5732 4.35878 17.6782 4.28499 17.7734 4.19691C18.4045 3.67356 19.096 3.22377 19.834 2.85666H2.94922ZM30 5.89424L25.0049 10.7267L25.0293 8.29859C21.9043 7.63918 18.374 8.41524 16.4844 10.7196C16.8457 5.95137 21.2622 3.57082 25.0732 3.45179L25.0952 0.973644L30 5.89186V5.89424ZM15.1367 7.20354C14.8968 6.75894 14.527 6.39373 14.0741 6.15407C13.6213 5.91442 13.1057 5.81109 12.5926 5.85717C12.0795 5.90324 11.592 6.09664 11.1916 6.41291C10.7913 6.72918 10.4961 7.15411 10.3435 7.63396C10.1908 8.11381 10.1875 8.62702 10.334 9.10869C10.4805 9.59037 10.7702 10.0189 11.1665 10.34C11.5627 10.6611 12.0478 10.8604 12.5602 10.9127C13.0727 10.9651 13.5895 10.868 14.0454 10.6339C14.6566 10.32 15.1149 9.78235 15.3195 9.13906C15.5242 8.49577 15.4584 7.79956 15.1367 7.20354ZM0 0V10.3816H1.35986V2.82095C1.35667 2.65045 1.38998 2.48118 1.45768 2.32395C1.52538 2.16672 1.62598 2.02499 1.75304 1.90782C1.8801 1.79065 2.03083 1.70061 2.1956 1.64347C2.36037 1.58632 2.53556 1.56331 2.70996 1.57592H18.7451V0H0Z" fill="white"/>
</g>
<defs>
<clipPath id="clip0_660_23551">
<rect width="30" height="14" fill="white"/>
</clipPath>
</defs>
</svg>
