<svg width="26" height="19" viewBox="0 0 26 19" fill="none" xmlns="http://www.w3.org/2000/svg">
<g clip-path="url(#clip0_660_23601)">
<path fill-rule="evenodd" clip-rule="evenodd" d="M17.1867 0C19.7522 0 21.8361 2.02817 21.8361 4.53416C21.8361 7.03605 19.7564 9.06832 17.1867 9.06832C14.6212 9.06832 12.5373 7.04015 12.5373 4.53416C12.5394 2.03227 14.6191 0 17.1867 0ZM0 8.07372H5.22141V17.1338H0V8.07372ZM6.27284 16.373V8.79968H9.7657C11.2461 9.05807 12.7265 9.84145 14.207 10.7499H16.9196C18.1477 10.8217 18.7912 12.0357 17.5968 12.8335C16.6463 13.5143 15.3909 13.4753 14.1039 13.3625C13.2165 13.3195 13.1787 14.4822 14.1039 14.4863C14.4257 14.511 14.7747 14.4371 15.0796 14.4371C16.6862 14.4351 18.0068 14.1357 18.8164 12.8991L19.2223 11.9742L23.2577 10.024C25.2764 9.37593 26.7106 11.4349 25.2239 12.8683C22.3009 14.9416 19.3043 16.6478 16.2383 18.0259C14.0114 19.3466 11.7845 19.3015 9.55962 18.0259L6.27284 16.373ZM15.6621 2.19838H18.7155C18.7407 2.19838 18.7639 2.21889 18.7639 2.24555V2.69876C18.7639 2.72542 18.7428 2.74593 18.7155 2.74593H17.7629C17.9122 2.91614 18.0215 3.12121 18.0699 3.34679H18.7155C18.7407 3.34679 18.7639 3.3673 18.7639 3.39396V3.84717C18.7639 3.87383 18.7428 3.89433 18.7155 3.89433H18.0678C18.0089 4.16503 17.8659 4.40702 17.6662 4.59363C17.3919 4.84855 17.0273 4.99035 16.6484 4.98942V4.99147H16.6042L18.316 6.89455C18.3622 6.94582 18.2802 7.06066 18.2445 7.06066L17.4538 7.06476L15.6264 5.03249C15.6193 5.02443 15.6144 5.01474 15.6122 5.00434C15.61 4.99394 15.6105 4.98316 15.6138 4.97302V4.2286H16.6484V4.23065C16.8334 4.23065 17.0038 4.15888 17.1257 4.04609C17.1741 4.00097 17.214 3.95175 17.2435 3.89638H15.66C15.6348 3.89638 15.6117 3.87588 15.6117 3.84922V3.39601C15.6117 3.36935 15.6327 3.34884 15.66 3.34884H17.2435C17.2119 3.29347 17.172 3.2422 17.1257 3.19914C17.0038 3.0843 16.8355 3.01457 16.6484 3.01457V3.01662H15.6138V2.2476C15.6138 2.21889 15.6369 2.19838 15.6621 2.19838Z" fill="white"/>
</g>
<defs>
<clipPath id="clip0_660_23601">
<rect width="25.84" height="19" fill="white"/>
</clipPath>
</defs>
</svg>
