<svg width="31" height="33" viewBox="0 0 31 33" fill="none" xmlns="http://www.w3.org/2000/svg">
<g id="lab_profile_FILL1_wght300_GRAD0_opsz24 (1) 1">
<path id="Vector" d="M10.6562 16.1665H20.3437V14.1666H10.6562V16.1665ZM10.6562 10.8332H20.3437V8.83325H10.6562V10.8332ZM25.098 27.4409L20.2766 20.9717C19.9355 20.5033 19.5207 20.1409 19.0322 19.8845C18.5436 19.6281 18.0121 19.4999 17.4375 19.4999H5.8125V6.24352C5.8125 5.57001 6.03854 4.99992 6.49062 4.53325C6.94271 4.06659 7.49498 3.83325 8.14745 3.83325H22.8525C23.505 3.83325 24.0572 4.06659 24.5093 4.53325C24.9614 4.99992 25.1874 5.57001 25.1874 6.24352V26.7563C25.1874 26.8759 25.18 26.9922 25.1651 27.105C25.1502 27.2178 25.1278 27.3298 25.098 27.4409ZM8.14745 29.1665C7.49498 29.1665 6.94271 28.9332 6.49062 28.4665C6.03854 27.9999 5.8125 27.4298 5.8125 26.7563V21.4999H17.4375C17.7024 21.4999 17.9471 21.5605 18.1715 21.6819C18.3959 21.8033 18.5892 21.9742 18.7515 22.1948L23.7418 28.9383C23.6093 29.0169 23.4673 29.0746 23.3158 29.1114C23.1642 29.1481 23.0098 29.1665 22.8525 29.1665H8.14745Z" fill="#B94217"/>
</g>
</svg>
