<svg width="35" height="35" viewBox="0 0 35 35" fill="none" xmlns="http://www.w3.org/2000/svg">
<g id="Monitor Progress">
<path id="Vector" d="M10.7425 24.4271H12.9299V17.5H10.7425V24.4271ZM22.0726 24.4271H24.2601V10.2084H22.0726V24.4271ZM16.4076 24.4271H18.595V20.4167H16.4076V24.4271ZM16.4076 17.5H18.595V14.5834H16.4076V17.5ZM7.7417 29.8958C7.00505 29.8958 6.38151 29.6406 5.87109 29.1302C5.36068 28.6198 5.10547 27.9963 5.10547 27.2596V7.74048C5.10547 7.00383 5.36068 6.38029 5.87109 5.86987C6.38151 5.35946 7.00505 5.10425 7.7417 5.10425H27.2608C27.9975 5.10425 28.621 5.35946 29.1314 5.86987C29.6419 6.38029 29.8971 7.00383 29.8971 7.74048V27.2596C29.8971 27.9963 29.6419 28.6198 29.1314 29.1302C28.621 29.6406 27.9975 29.8958 27.2608 29.8958H7.7417Z" fill="#B94217"/>
</g>
</svg>
